<mxfile host="app.diagrams.net" agent="Mozilla/5.0 (Windows NT 10.0; Win64; x64; rv:131.0) Gecko/20100101 Firefox/131.0" version="24.7.16">
  <diagram name="Page-1" id="5qyd4jxujYh1DK8Yhu79">
    <mxGraphModel dx="379" dy="528" grid="1" gridSize="10" guides="1" tooltips="1" connect="1" arrows="1" fold="1" page="1" pageScale="1" pageWidth="827" pageHeight="1169" math="0" shadow="0">
      <root>
        <mxCell id="0" />
        <mxCell id="1" parent="0" />
        <mxCell id="qstJVeTbl_EITgfe4jpa-5" style="edgeStyle=orthogonalEdgeStyle;rounded=0;orthogonalLoop=1;jettySize=auto;html=1;exitX=0.5;exitY=1;exitDx=0;exitDy=0;entryX=0;entryY=0.5;entryDx=0;entryDy=0;endArrow=none;endFill=0;" edge="1" parent="1" source="qstJVeTbl_EITgfe4jpa-1" target="qstJVeTbl_EITgfe4jpa-2">
          <mxGeometry relative="1" as="geometry">
            <Array as="points">
              <mxPoint x="800" y="570" />
            </Array>
          </mxGeometry>
        </mxCell>
        <mxCell id="qstJVeTbl_EITgfe4jpa-1" value="Scene" style="rounded=0;whiteSpace=wrap;html=1;fillColor=#d5e8d4;strokeColor=#82b366;" vertex="1" parent="1">
          <mxGeometry x="760" y="520" width="80" height="20" as="geometry" />
        </mxCell>
        <mxCell id="qstJVeTbl_EITgfe4jpa-2" value="GameObject 1" style="rounded=0;whiteSpace=wrap;html=1;fillColor=#dae8fc;strokeColor=#6c8ebf;" vertex="1" parent="1">
          <mxGeometry x="820" y="560" width="100" height="20" as="geometry" />
        </mxCell>
        <mxCell id="qstJVeTbl_EITgfe4jpa-6" style="edgeStyle=orthogonalEdgeStyle;rounded=0;orthogonalLoop=1;jettySize=auto;html=1;exitX=0;exitY=0.5;exitDx=0;exitDy=0;endArrow=none;endFill=0;" edge="1" parent="1" source="qstJVeTbl_EITgfe4jpa-3">
          <mxGeometry relative="1" as="geometry">
            <mxPoint x="800" y="540" as="targetPoint" />
          </mxGeometry>
        </mxCell>
        <mxCell id="qstJVeTbl_EITgfe4jpa-3" value="&lt;div&gt;GameObject 2&lt;/div&gt;" style="rounded=0;whiteSpace=wrap;html=1;fillColor=#dae8fc;strokeColor=#6c8ebf;" vertex="1" parent="1">
          <mxGeometry x="820" y="590" width="100" height="20" as="geometry" />
        </mxCell>
        <mxCell id="qstJVeTbl_EITgfe4jpa-7" style="edgeStyle=orthogonalEdgeStyle;rounded=0;orthogonalLoop=1;jettySize=auto;html=1;exitX=0;exitY=0.5;exitDx=0;exitDy=0;endArrow=none;endFill=0;" edge="1" parent="1" source="qstJVeTbl_EITgfe4jpa-4">
          <mxGeometry relative="1" as="geometry">
            <mxPoint x="800" y="540" as="targetPoint" />
          </mxGeometry>
        </mxCell>
        <mxCell id="qstJVeTbl_EITgfe4jpa-4" value="&lt;div&gt;GameObject 3&lt;/div&gt;" style="rounded=0;whiteSpace=wrap;html=1;fillColor=#dae8fc;strokeColor=#6c8ebf;" vertex="1" parent="1">
          <mxGeometry x="820" y="620" width="100" height="20" as="geometry" />
        </mxCell>
        <mxCell id="qstJVeTbl_EITgfe4jpa-16" style="edgeStyle=orthogonalEdgeStyle;rounded=0;orthogonalLoop=1;jettySize=auto;html=1;exitX=0;exitY=0.5;exitDx=0;exitDy=0;entryX=0.25;entryY=1;entryDx=0;entryDy=0;endArrow=none;endFill=0;" edge="1" parent="1" source="qstJVeTbl_EITgfe4jpa-8" target="qstJVeTbl_EITgfe4jpa-4">
          <mxGeometry relative="1" as="geometry" />
        </mxCell>
        <mxCell id="qstJVeTbl_EITgfe4jpa-8" value="GameObject child" style="rounded=0;whiteSpace=wrap;html=1;fillColor=#dae8fc;strokeColor=#6c8ebf;" vertex="1" parent="1">
          <mxGeometry x="890" y="740" width="110" height="20" as="geometry" />
        </mxCell>
        <mxCell id="qstJVeTbl_EITgfe4jpa-12" style="edgeStyle=orthogonalEdgeStyle;rounded=0;orthogonalLoop=1;jettySize=auto;html=1;exitX=0;exitY=0.5;exitDx=0;exitDy=0;entryX=0.5;entryY=1;entryDx=0;entryDy=0;endArrow=none;endFill=0;" edge="1" parent="1" source="qstJVeTbl_EITgfe4jpa-9" target="qstJVeTbl_EITgfe4jpa-4">
          <mxGeometry relative="1" as="geometry" />
        </mxCell>
        <mxCell id="qstJVeTbl_EITgfe4jpa-9" value="Component A" style="rounded=0;whiteSpace=wrap;html=1;fillColor=#ffe6cc;strokeColor=#d79b00;" vertex="1" parent="1">
          <mxGeometry x="890" y="650" width="110" height="20" as="geometry" />
        </mxCell>
        <mxCell id="qstJVeTbl_EITgfe4jpa-14" style="edgeStyle=orthogonalEdgeStyle;rounded=0;orthogonalLoop=1;jettySize=auto;html=1;exitX=0;exitY=0.5;exitDx=0;exitDy=0;entryX=0.5;entryY=1;entryDx=0;entryDy=0;endArrow=none;endFill=0;" edge="1" parent="1" source="qstJVeTbl_EITgfe4jpa-10" target="qstJVeTbl_EITgfe4jpa-4">
          <mxGeometry relative="1" as="geometry" />
        </mxCell>
        <mxCell id="qstJVeTbl_EITgfe4jpa-10" value="Component B" style="rounded=0;whiteSpace=wrap;html=1;fillColor=#ffe6cc;strokeColor=#d79b00;" vertex="1" parent="1">
          <mxGeometry x="890" y="680" width="110" height="20" as="geometry" />
        </mxCell>
        <mxCell id="qstJVeTbl_EITgfe4jpa-15" style="edgeStyle=orthogonalEdgeStyle;rounded=0;orthogonalLoop=1;jettySize=auto;html=1;exitX=0;exitY=0.5;exitDx=0;exitDy=0;endArrow=none;endFill=0;" edge="1" parent="1" source="qstJVeTbl_EITgfe4jpa-11">
          <mxGeometry relative="1" as="geometry">
            <mxPoint x="870" y="640" as="targetPoint" />
          </mxGeometry>
        </mxCell>
        <mxCell id="qstJVeTbl_EITgfe4jpa-11" value="Component C" style="rounded=0;whiteSpace=wrap;html=1;fillColor=#ffe6cc;strokeColor=#d79b00;" vertex="1" parent="1">
          <mxGeometry x="890" y="710" width="110" height="20" as="geometry" />
        </mxCell>
        <mxCell id="qstJVeTbl_EITgfe4jpa-18" style="edgeStyle=orthogonalEdgeStyle;rounded=0;orthogonalLoop=1;jettySize=auto;html=1;exitX=0;exitY=0.5;exitDx=0;exitDy=0;entryX=0.5;entryY=1;entryDx=0;entryDy=0;endArrow=none;endFill=0;" edge="1" parent="1" source="qstJVeTbl_EITgfe4jpa-17" target="qstJVeTbl_EITgfe4jpa-8">
          <mxGeometry relative="1" as="geometry" />
        </mxCell>
        <mxCell id="qstJVeTbl_EITgfe4jpa-17" value="Component D" style="rounded=0;whiteSpace=wrap;html=1;fillColor=#ffe6cc;strokeColor=#d79b00;" vertex="1" parent="1">
          <mxGeometry x="960" y="770" width="110" height="20" as="geometry" />
        </mxCell>
      </root>
    </mxGraphModel>
  </diagram>
</mxfile>
